<svg width="35" height="20" viewBox="0 0 35 20" fill="none" xmlns="http://www.w3.org/2000/svg">
<path d="M20.625 0H1.375C1.01033 0 0.660591 0.175595 0.402728 0.488155C0.144866 0.800716 0 1.22464 0 1.66667V18.3333C0 18.7754 0.144866 19.1993 0.402728 19.5118C0.660591 19.8244 1.01033 20 1.375 20H20.625C20.9897 20 21.3394 19.8244 21.5973 19.5118C21.8551 19.1993 22 18.7754 22 18.3333V1.66667C22 1.22464 21.8551 0.800716 21.5973 0.488155C21.3394 0.175595 20.9897 0 20.625 0ZM19.625 1.66667C20.1773 1.66667 20.625 2.11438 20.625 2.66667V10.6667C20.625 11.219 20.1773 11.6667 19.625 11.6667H2.375C1.82272 11.6667 1.375 11.219 1.375 10.6667V2.66667C1.375 2.11438 1.82272 1.66667 2.375 1.66667H19.625ZM2.375 18.3333C1.82272 18.3333 1.375 17.8856 1.375 17.3333V16C1.375 15.4477 1.82272 15 2.375 15H19.625C20.1773 15 20.625 15.4477 20.625 16V17.3333C20.625 17.8856 20.1773 18.3333 19.625 18.3333H2.375Z" fill="#BEBDBD"/>
<path d="M27 8.5L30.1746 11.2211C30.3618 11.3816 30.6382 11.3816 30.8254 11.2211L34 8.5" stroke="#BEBDBD" stroke-width="1.3" stroke-linecap="round"/>
</svg>
