<svg width="28" height="24" viewBox="0 0 28 24" fill="none" xmlns="http://www.w3.org/2000/svg">
<path d="M22 5.50035C22 5.00042 21.5198 4.6407 21.04 4.78125V4.78125L4.14361 9.92142C3.95491 9.97882 3.75875 10.008 3.56151 10.008H3C1.89543 10.008 1 10.9034 1 12.008V14.008C1 15.1126 1.89543 16.008 3 16.008H3.66467C3.79402 16.008 3.92267 16.027 4.04651 16.0644L5.27497 16.4352C5.30835 16.4452 5.32696 16.4807 5.31626 16.5139V16.5139C5.31427 16.5201 5.31325 16.5266 5.31325 16.5331V16.5356C5.31325 16.5433 5.31218 16.5507 5.30996 16.5581C4.83412 18.1467 5.35153 21.511 7 22.0078V22.0078C7.76854 22.2384 7.71041 22.1536 8.42495 21.7886C9.67316 21.151 10.8904 19.5256 11.2428 18.3278V18.3278C11.2552 18.2887 11.2968 18.2669 11.336 18.2788L21.04 21.2348V21.2348C21.5199 21.375 22 21.0151 22 20.5151V5.50035ZM17.9164 7.3042C19.2015 6.91213 20.5 7.87355 20.5 9.21716V16.7989C20.5 18.1425 19.2016 19.1039 17.9164 18.7118L4.21 14.5305V14.5305C4.14872 14.5156 4.08587 14.508 4.0228 14.508H3.94417C3.14658 14.508 2.5 13.8614 2.5 13.0638V12.9539C2.5 12.1554 3.14736 11.508 3.94592 11.508H4.02059C4.08464 11.508 4.14847 11.5004 4.21075 11.4855V11.4855L17.9164 7.3042ZM6.7458 16.9598C6.75659 16.9257 6.7928 16.9065 6.82716 16.9167L9.77488 17.7951C9.80827 17.8051 9.82695 17.8405 9.81625 17.8737V17.8737C9.81426 17.8799 9.81325 17.8863 9.81325 17.8928V17.8947C9.81325 17.9019 9.81235 17.9086 9.8103 17.9154C9.54586 18.7977 8.29949 20.7503 7.5 20.5C6.62619 20.2438 6.49336 17.8158 6.73961 17.0022C6.74176 16.9951 6.74275 16.9882 6.74275 16.9808V16.9796C6.74275 16.9729 6.74378 16.9662 6.7458 16.9598V16.9598Z" fill="black"/>
<path d="M24 10.5L27 10" stroke="black" stroke-linecap="round"/>
<path d="M24 13.5H27" stroke="black" stroke-linecap="round"/>
<path d="M24 16.5L27 17" stroke="black" stroke-linecap="round"/>
</svg>
