<svg width="17" height="19" viewBox="0 0 17 19" fill="none" xmlns="http://www.w3.org/2000/svg">
<path d="M8.76765 1C6.42478 2.00379 1.86704 5.49972 1.10828 10.9264C0.85922 12.7077 1.44719 14.5269 2.81424 15.6957C4.20861 16.888 6.2193 18 8.33928 18" stroke="#BEBDBD" stroke-width="1.5" stroke-linecap="round"/>
<path d="M8.76766 7.97461C7.63827 8.46955 5.57565 10.0386 4.79469 12.4702C4.25504 14.1505 4.88996 16.0462 6.41467 16.9349C7.04466 17.3021 7.77544 17.5644 8.53141 17.5644" stroke="#BEBDBD" stroke-width="1.5" stroke-linecap="round"/>
<path d="M8.76766 1C11.1104 2.00372 15.3482 5.49921 16.0203 10.9252C16.2413 12.7102 15.6597 14.5269 14.2927 15.6957C12.8983 16.888 10.8876 18 8.76766 18" stroke="#BEBDBD" stroke-width="1.5" stroke-linecap="round"/>
<path d="M8.76768 7.97461C9.94146 8.46092 11.9308 9.98415 12.7172 12.3437C13.302 14.0983 12.5906 16.0791 10.9635 16.9585C10.307 17.3133 9.5501 17.5644 8.76768 17.5644" stroke="#BEBDBD" stroke-width="1.5" stroke-linecap="round"/>
</svg>
