<svg width="24" height="24" viewBox="0 0 24 24" fill="none" xmlns="http://www.w3.org/2000/svg">
<g clip-path="url(#clip0_402_3327)">
<path d="M16.875 3.55664C12.2192 0.868641 6.24424 2.46964 3.55624 7.12539C0.868244 11.7811 2.46924 17.7561 7.12499 20.4441C11.7807 23.1321 17.7557 21.5311 20.4437 16.8754C23.1317 12.2196 21.5307 6.24464 16.875 3.55664ZM16.125 4.85568C20.0786 7.1383 21.4273 12.1718 19.1447 16.1254C16.8621 20.079 11.8286 21.4277 7.87499 19.1451C3.92137 16.8625 2.57266 11.829 4.85528 7.87539C7.13791 3.92177 12.1714 2.57305 16.125 4.85568ZM14.6719 7.37256L13.9342 7.57022L8.1088 9.13113L8.4824 10.593L12.5805 9.49497L8.72547 16.172L10.0245 16.922L13.8795 10.245L14.9776 14.343L16.4308 13.935L14.8692 8.10919L14.6716 7.37154L14.6719 7.37256Z" fill="black"/>
</g>
<defs>
<clipPath id="clip0_402_3327">
<rect width="24" height="24" fill="white"/>
</clipPath>
</defs>
</svg>
