<svg width="24" height="24" viewBox="0 0 24 24" fill="none" xmlns="http://www.w3.org/2000/svg">
<path d="M7.5 12C8.32843 12 9 11.3284 9 10.5C9 9.67157 8.32843 9 7.5 9C6.67157 9 6 9.67157 6 10.5C6 11.3284 6.67157 12 7.5 12Z" fill="#C8C8C8"/>
<path d="M10.5 15L9 13L6 17H18L13.5 11L10.5 15Z" fill="#C8C8C8"/>
<path d="M20 4H4C2.897 4 2 5.06519 2 6.375V20.625C2 21.9348 2.897 23 4 23H20C21.103 23 22 21.9348 22 20.625V6.375C22 5.06519 21.103 4 20 4ZM4 20.625V6.375H20L20.002 20.625H4Z" fill="#C8C8C8"/>
</svg>
