<svg width="24" height="24" viewBox="0 0 24 24" fill="none" xmlns="http://www.w3.org/2000/svg">
<path d="M12.7847 17.5809C12.8896 17.6854 12.9728 17.8096 13.0296 17.9463C13.0863 18.0831 13.1156 18.2297 13.1156 18.3777C13.1156 18.5258 13.0863 18.6724 13.0296 18.8092C12.9728 18.9459 12.8896 19.0701 12.7847 19.1746L12.2278 19.7315C11.1726 20.7867 9.74138 21.3795 8.24906 21.3795C6.75673 21.3795 5.32554 20.7867 4.27031 19.7315C3.21508 18.6762 2.62225 17.245 2.62225 15.7527C2.62225 14.2604 3.21508 12.8292 4.27031 11.774L6.53156 9.51367C7.54545 8.49727 8.9096 7.907 10.3446 7.86378C11.7796 7.82055 13.1768 8.32764 14.25 9.28117C14.3608 9.37966 14.4511 9.49901 14.5158 9.63241C14.5805 9.7658 14.6182 9.91063 14.6269 10.0586C14.6356 10.2066 14.6151 10.3549 14.5665 10.4949C14.5179 10.635 14.4422 10.7641 14.3437 10.8749C14.2453 10.9857 14.1259 11.076 13.9925 11.1407C13.8591 11.2054 13.7143 11.2432 13.5663 11.2519C13.4183 11.2606 13.27 11.24 13.13 11.1915C12.9899 11.1429 12.8608 11.0672 12.75 10.9687C12.1064 10.3971 11.2688 10.093 10.4084 10.1186C9.54805 10.1443 8.72998 10.4976 8.12156 11.1065L5.86218 13.364C5.22914 13.997 4.8735 14.8556 4.8735 15.7509C4.8735 16.6461 5.22914 17.5047 5.86218 18.1377C6.49522 18.7708 7.3538 19.1264 8.24906 19.1264C9.14431 19.1264 10.0029 18.7708 10.6359 18.1377L11.1928 17.5809C11.2973 17.4763 11.4214 17.3933 11.5579 17.3367C11.6945 17.28 11.8409 17.2509 11.9887 17.2509C12.1366 17.2509 12.283 17.28 12.4196 17.3367C12.5561 17.3933 12.6802 17.4763 12.7847 17.5809ZM19.7297 4.26836C18.6736 3.21475 17.2427 2.62305 15.7509 2.62305C14.2591 2.62305 12.8283 3.21475 11.7722 4.26836L11.2153 4.82523C11.004 5.03658 10.8852 5.32322 10.8852 5.62211C10.8852 5.92099 11.004 6.20764 11.2153 6.41898C11.4267 6.63033 11.7133 6.74906 12.0122 6.74906C12.3111 6.74906 12.5977 6.63033 12.8091 6.41898L13.3659 5.86211C13.999 5.22907 14.8576 4.87343 15.7528 4.87343C16.6481 4.87343 17.5066 5.22907 18.1397 5.86211C18.7727 6.49514 19.1284 7.35373 19.1284 8.24898C19.1284 9.14423 18.7727 10.0028 18.1397 10.6359L15.8794 12.8971C15.2704 13.5057 14.4519 13.8586 13.5913 13.8835C12.7307 13.9084 11.8932 13.6035 11.25 13.0312C11.1392 12.9327 11.0101 12.857 10.87 12.8084C10.73 12.7598 10.5817 12.7393 10.4337 12.748C10.2857 12.7567 10.1409 12.7944 10.0075 12.8591C9.87409 12.9238 9.75473 13.0141 9.65624 13.1249C9.55775 13.2357 9.48205 13.3648 9.43346 13.5049C9.38487 13.645 9.36434 13.7932 9.37304 13.9412C9.38175 14.0892 9.41952 14.234 9.48419 14.3674C9.54887 14.5008 9.63919 14.6202 9.74999 14.7187C10.8225 15.672 12.2187 16.1794 13.653 16.137C15.0874 16.0947 16.4513 15.5058 17.4656 14.4909L19.7269 12.2305C20.7817 11.1747 21.3745 9.74344 21.375 8.25097C21.3755 6.7585 20.7838 5.32681 19.7297 4.27023V4.26836Z" fill="#C8C8C8"/>
</svg>
