<svg width="27" height="29" viewBox="0 0 27 29" fill="none" xmlns="http://www.w3.org/2000/svg">
<path d="M12.6697 27.2693L11.9371 26.6246C11.8458 26.5443 11.7284 26.5 11.6068 26.5H8.38635C7.81817 26.5 5.54544 25 4.97726 25C4.55537 25 3.12187 23.5642 2.31234 22.6916C2.20123 22.5718 2.15793 22.4051 2.19413 22.2458L2.70453 20C2.89393 19.3333 3.27272 17.9 3.27272 17.5C3.27272 17.2387 3.1111 16.6788 2.94621 16.1825C2.83593 15.8505 3.07879 15.5 3.4286 15.5H13.5V2.16773C13.5 1.83408 13.8206 1.59403 14.1407 1.68795L25.0083 4.87577C25.2502 4.94674 25.4015 5.18677 25.3611 5.43567L23.7954 15.0801C23.7561 15.3222 23.5471 15.5 23.3019 15.5H13.5V26.894C13.5 27.3242 12.9927 27.5536 12.6697 27.2693Z" fill="#FF4500"/>
<path d="M13.5 1C11.1979 2.17049 6.59036 3.34099 3.6535 3.98978C2.33985 4.27999 1.39166 5.81095 1.70729 7.11872C2.69549 11.2132 3.69825 17.4011 2.92175 22.095C2.81749 22.7252 2.96419 23.3839 3.4338 23.817C4.74587 25.0271 7.07711 26.5974 9.62069 26.5974C12.7241 26.5974 13.5 27.5325 13.5 28" stroke="#FF4500" stroke-width="1.8" stroke-linecap="round"/>
<path d="M13.5 1C15.8021 2.17049 20.4096 3.34099 23.3465 3.98978C24.6602 4.27999 25.6083 5.81095 25.2927 7.11872C24.3045 11.2132 23.3018 17.4011 24.0782 22.095C24.1825 22.7252 24.0358 23.3839 23.5662 23.817C22.2541 25.0271 19.9229 26.5974 17.3793 26.5974C14.2759 26.5974 13.5 27.5325 13.5 28" stroke="#FF4500" stroke-width="1.8" stroke-linecap="round"/>
</svg>
