<svg width="24" height="24" viewBox="0 0 24 24" fill="none" xmlns="http://www.w3.org/2000/svg">
<path d="M5.985 4.53937C5.01375 6.48281 4.5 9.06281 4.5 12C4.5 14.9372 5.01375 17.5172 5.985 19.4606C6.95625 21.4041 8.32312 22.5 9.75 22.5L14.25 22.5C15.6769 22.5 17.0484 21.3919 18.015 19.4606C18.9816 17.5294 19.5 14.9372 19.5 12C19.5 9.06281 18.9862 6.48281 18.015 4.53937C17.0437 2.59594 15.6769 1.5 14.25 1.5L9.75 1.5C8.32312 1.5 6.95156 2.60812 5.985 4.53937ZM6 12C6 6.1275 8.17781 3 9.75 3C11.3222 3 13.5 6.1275 13.5 12C13.5 17.8725 11.3222 21 9.75 21C8.17781 21 6 17.8725 6 12ZM14.9869 12.75L17.9869 12.75C17.9287 14.5312 17.6662 16.0312 17.2847 17.25L14.3484 17.25C14.7399 15.7808 14.9542 14.2701 14.9869 12.75ZM14.9869 11.25C14.9542 9.72991 14.7399 8.21919 14.3484 6.75L17.2837 6.75C17.6653 7.96875 17.9278 9.46875 17.9859 11.25L14.9869 11.25ZM14.25 21L12.5184 21C12.9102 20.528 13.2447 20.0113 13.515 19.4606C13.6284 19.2328 13.7353 18.9919 13.8366 18.75L16.6875 18.75C15.9525 20.2341 15.0272 21 14.25 21ZM16.6875 5.25L13.8366 5.25C13.7353 5.00531 13.6284 4.76719 13.515 4.53937C13.2447 3.98871 12.9102 3.47199 12.5184 3L14.25 3C15.0272 3 15.9525 3.76594 16.6875 5.25Z" fill="black"/>
</svg>
