<svg width="24" height="24" viewBox="0 0 24 24" fill="none" xmlns="http://www.w3.org/2000/svg">
<path d="M13.7715 2.40143C13.5668 2.12416 13.2999 1.89881 12.9922 1.74352C12.6845 1.58823 12.3447 1.50732 12 1.50732C11.6554 1.50732 11.3155 1.58823 11.0078 1.74352C10.7002 1.89881 10.4332 2.12416 10.2285 2.40143C9.9556 2.77118 9.57383 3.04628 9.13672 3.18817C8.69961 3.33006 8.22906 3.33164 7.79101 3.19268C7.46234 3.08863 7.11382 3.06322 6.77353 3.11847C6.43323 3.17373 6.11067 3.30811 5.8318 3.5108C5.55293 3.7135 5.32555 3.97884 5.16796 4.28547C5.01038 4.59209 4.92699 4.93144 4.92451 5.27618C4.92099 5.73551 4.77391 6.18225 4.50386 6.55384C4.23381 6.92542 3.85432 7.20325 3.41851 7.34843C3.0914 7.45738 2.79444 7.64161 2.55154 7.88631C2.30864 8.131 2.1266 8.42932 2.02007 8.75723C1.91354 9.08514 1.8855 9.43348 1.9382 9.77421C1.99091 10.1149 2.12289 10.4385 2.32351 10.7189C2.59077 11.0926 2.73447 11.5405 2.73447 11.9999C2.73447 12.4593 2.59077 12.9073 2.32351 13.2809C2.12289 13.5613 1.99091 13.8849 1.9382 14.2256C1.8855 14.5664 1.91354 14.9147 2.02007 15.2426C2.1266 15.5705 2.30864 15.8689 2.55154 16.1135C2.79444 16.3582 3.0914 16.5425 3.41851 16.6514C3.85432 16.7966 4.23381 17.0744 4.50386 17.446C4.77391 17.8176 4.92099 18.2643 4.92451 18.7237C4.92695 19.0685 5.01035 19.4079 5.16797 19.7146C5.3256 20.0213 5.55306 20.2867 5.83202 20.4895C6.11099 20.6922 6.43366 20.8265 6.77405 20.8817C7.11444 20.9369 7.46304 20.9114 7.79176 20.8072C8.22971 20.6684 8.7001 20.6701 9.13706 20.8119C9.57401 20.9538 9.95565 21.2288 10.2285 21.5984C10.4332 21.8757 10.7002 22.101 11.0078 22.2563C11.3155 22.4116 11.6554 22.4925 12 22.4925C12.3447 22.4925 12.6845 22.4116 12.9922 22.2563C13.2999 22.101 13.5668 21.8757 13.7715 21.5984C14.0444 21.2287 14.4262 20.9536 14.8633 20.8117C15.3004 20.6698 15.771 20.6682 16.209 20.8072C16.5377 20.9112 16.8862 20.9366 17.2265 20.8814C17.5668 20.8261 17.8894 20.6917 18.1682 20.4891C18.4471 20.2864 18.6745 20.021 18.8321 19.7144C18.9896 19.4078 19.073 19.0684 19.0755 18.7237C19.079 18.2643 19.2261 17.8176 19.4962 17.446C19.7662 17.0744 20.1457 16.7966 20.5815 16.6514C20.9086 16.5425 21.2056 16.3582 21.4485 16.1135C21.6914 15.8689 21.8734 15.5705 21.98 15.2426C22.0865 14.9147 22.1145 14.5664 22.0618 14.2256C22.0091 13.8849 21.8771 13.5613 21.6765 13.2809C21.4093 12.9073 21.2656 12.4593 21.2656 11.9999C21.2656 11.5405 21.4093 11.0926 21.6765 10.7189C21.8771 10.4385 22.0091 10.1149 22.0618 9.77421C22.1145 9.43348 22.0865 9.08514 21.98 8.75723C21.8734 8.42932 21.6914 8.131 21.4485 7.88631C21.2056 7.64161 20.9086 7.45738 20.5815 7.34843C20.1457 7.20325 19.7662 6.92542 19.4962 6.55384C19.2261 6.18225 19.079 5.73551 19.0755 5.27618C19.0731 4.93135 18.9897 4.59191 18.832 4.28521C18.6744 3.97851 18.447 3.71312 18.168 3.51041C17.889 3.3077 17.5664 3.17334 17.226 3.11815C16.8856 3.06296 16.537 3.08849 16.2083 3.19268C15.7703 3.33147 15.2999 3.3298 14.863 3.18792C14.426 3.04603 14.0444 2.77103 13.7715 2.40143ZM8.07601 18.7964C4.32226 16.6289 3.03601 11.8289 5.20351 8.07593C7.37101 4.32218 12.171 3.03593 15.924 5.20343C19.6778 7.37093 20.964 12.1709 18.7965 15.9239C16.629 19.6777 11.829 20.9639 8.07601 18.7964Z" fill="#BEBDBD"/>
</svg>
